<?xml version="1.0" encoding="UTF-8" standalone="no"?>
<!DOCTYPE svg PUBLIC "-//W3C//DTD SVG 1.1//EN"
 "http://www.w3.org/Graphics/SVG/1.1/DTD/svg11.dtd">
<!-- Generated by graphviz version 2.43.0 (0)
 -->
<!-- Title: G Pages: 1 -->
<svg width="1622pt" height="1968pt"
 viewBox="0.00 0.00 1622.20 1968.20" xmlns="http://www.w3.org/2000/svg" xmlns:xlink="http://www.w3.org/1999/xlink">
<g id="graph0" class="graph" transform="scale(1 1) rotate(0) translate(21.6 1946.6)">
<title>G</title>
<polygon fill="#111111" stroke="transparent" points="-21.6,21.6 -21.6,-1946.6 1600.6,-1946.6 1600.6,21.6 -21.6,21.6"/>
<!-- env.mjs -->
<g id="node1" class="node">
<title>env.mjs</title>
<path fill="none" stroke="#cfffac" d="M925.33,-265C925.33,-265 877.67,-265 877.67,-265 873.83,-265 870,-261.17 870,-257.33 870,-257.33 870,-249.67 870,-249.67 870,-245.83 873.83,-242 877.67,-242 877.67,-242 925.33,-242 925.33,-242 929.17,-242 933,-245.83 933,-249.67 933,-249.67 933,-257.33 933,-257.33 933,-261.17 929.17,-265 925.33,-265"/>
<text text-anchor="middle" x="901.5" y="-249.8" font-family="Arial" font-size="14.00" fill="#cfffac">env.mjs</text>
</g>
<!-- prisma/seed.ts -->
<g id="node2" class="node">
<title>prisma/seed.ts</title>
<path fill="none" stroke="#cfffac" d="M223.33,-268C223.33,-268 133.67,-268 133.67,-268 129.83,-268 126,-264.17 126,-260.33 126,-260.33 126,-252.67 126,-252.67 126,-248.83 129.83,-245 133.67,-245 133.67,-245 223.33,-245 223.33,-245 227.17,-245 231,-248.83 231,-252.67 231,-252.67 231,-260.33 231,-260.33 231,-264.17 227.17,-268 223.33,-268"/>
<text text-anchor="middle" x="178.5" y="-252.8" font-family="Arial" font-size="14.00" fill="#cfffac">prisma/seed.ts</text>
</g>
<!-- src/app/(not&#45;protected)/page.tsx -->
<g id="node3" class="node">
<title>src/app/(not&#45;protected)/page.tsx</title>
<path fill="none" stroke="#cfffac" d="M274.83,-309C274.83,-309 82.17,-309 82.17,-309 78.33,-309 74.5,-305.17 74.5,-301.33 74.5,-301.33 74.5,-293.67 74.5,-293.67 74.5,-289.83 78.33,-286 82.17,-286 82.17,-286 274.83,-286 274.83,-286 278.67,-286 282.5,-289.83 282.5,-293.67 282.5,-293.67 282.5,-301.33 282.5,-301.33 282.5,-305.17 278.67,-309 274.83,-309"/>
<text text-anchor="middle" x="178.5" y="-293.8" font-family="Arial" font-size="14.00" fill="#cfffac">src/app/(not&#45;protected)/page.tsx</text>
</g>
<!-- src/app/(protected)/layout.tsx -->
<g id="node4" class="node">
<title>src/app/(protected)/layout.tsx</title>
<path fill="none" stroke="#cfffac" d="M266.33,-350C266.33,-350 90.67,-350 90.67,-350 86.83,-350 83,-346.17 83,-342.33 83,-342.33 83,-334.67 83,-334.67 83,-330.83 86.83,-327 90.67,-327 90.67,-327 266.33,-327 266.33,-327 270.17,-327 274,-330.83 274,-334.67 274,-334.67 274,-342.33 274,-342.33 274,-346.17 270.17,-350 266.33,-350"/>
<text text-anchor="middle" x="178.5" y="-334.8" font-family="Arial" font-size="14.00" fill="#cfffac">src/app/(protected)/layout.tsx</text>
</g>
<!-- src/app/(protected)/profile/page.tsx -->
<g id="node5" class="node">
<title>src/app/(protected)/profile/page.tsx</title>
<path fill="none" stroke="#c6c5fe" d="M283.33,-391C283.33,-391 73.67,-391 73.67,-391 69.83,-391 66,-387.17 66,-383.33 66,-383.33 66,-375.67 66,-375.67 66,-371.83 69.83,-368 73.67,-368 73.67,-368 283.33,-368 283.33,-368 287.17,-368 291,-371.83 291,-375.67 291,-375.67 291,-383.33 291,-383.33 291,-387.17 287.17,-391 283.33,-391"/>
<text text-anchor="middle" x="178.5" y="-375.8" font-family="Arial" font-size="14.00" fill="#c6c5fe">src/app/(protected)/profile/page.tsx</text>
</g>
<!-- src/app/(protected)/profile/see&#45;details&#45;toggle.tsx -->
<g id="node6" class="node">
<title>src/app/(protected)/profile/see&#45;details&#45;toggle.tsx</title>
<path fill="none" stroke="#cfffac" d="M696.33,-391C696.33,-391 409.67,-391 409.67,-391 405.83,-391 402,-387.17 402,-383.33 402,-383.33 402,-375.67 402,-375.67 402,-371.83 405.83,-368 409.67,-368 409.67,-368 696.33,-368 696.33,-368 700.17,-368 704,-371.83 704,-375.67 704,-375.67 704,-383.33 704,-383.33 704,-387.17 700.17,-391 696.33,-391"/>
<text text-anchor="middle" x="553" y="-375.8" font-family="Arial" font-size="14.00" fill="#cfffac">src/app/(protected)/profile/see&#45;details&#45;toggle.tsx</text>
</g>
<!-- src/app/(protected)/profile/page.tsx&#45;&gt;src/app/(protected)/profile/see&#45;details&#45;toggle.tsx -->
<g id="edge1" class="edge">
<title>src/app/(protected)/profile/page.tsx&#45;&gt;src/app/(protected)/profile/see&#45;details&#45;toggle.tsx</title>
<path fill="none" stroke="#757575" d="M291.01,-379.5C322.71,-379.5 357.88,-379.5 391.86,-379.5"/>
<polygon fill="#757575" stroke="#757575" points="391.88,-383 401.88,-379.5 391.88,-376 391.88,-383"/>
</g>
<!-- src/app/(sys&#45;auth)/sign&#45;in/layout.tsx -->
<g id="node7" class="node">
<title>src/app/(sys&#45;auth)/sign&#45;in/layout.tsx</title>
<path fill="none" stroke="#cfffac" d="M285.33,-432C285.33,-432 71.67,-432 71.67,-432 67.83,-432 64,-428.17 64,-424.33 64,-424.33 64,-416.67 64,-416.67 64,-412.83 67.83,-409 71.67,-409 71.67,-409 285.33,-409 285.33,-409 289.17,-409 293,-412.83 293,-416.67 293,-416.67 293,-424.33 293,-424.33 293,-428.17 289.17,-432 285.33,-432"/>
<text text-anchor="middle" x="178.5" y="-416.8" font-family="Arial" font-size="14.00" fill="#cfffac">src/app/(sys&#45;auth)/sign&#45;in/layout.tsx</text>
</g>
<!-- src/app/(sys&#45;auth)/sign&#45;in/page.tsx -->
<g id="node8" class="node">
<title>src/app/(sys&#45;auth)/sign&#45;in/page.tsx</title>
<path fill="none" stroke="#cfffac" d="M282.33,-473C282.33,-473 74.67,-473 74.67,-473 70.83,-473 67,-469.17 67,-465.33 67,-465.33 67,-457.67 67,-457.67 67,-453.83 70.83,-450 74.67,-450 74.67,-450 282.33,-450 282.33,-450 286.17,-450 290,-453.83 290,-457.67 290,-457.67 290,-465.33 290,-465.33 290,-469.17 286.17,-473 282.33,-473"/>
<text text-anchor="middle" x="178.5" y="-457.8" font-family="Arial" font-size="14.00" fill="#cfffac">src/app/(sys&#45;auth)/sign&#45;in/page.tsx</text>
</g>
<!-- src/app/(sys&#45;auth)/sign&#45;up/credentials/page.tsx -->
<g id="node9" class="node">
<title>src/app/(sys&#45;auth)/sign&#45;up/credentials/page.tsx</title>
<path fill="none" stroke="#cfffac" d="M318.83,-514C318.83,-514 38.17,-514 38.17,-514 34.33,-514 30.5,-510.17 30.5,-506.33 30.5,-506.33 30.5,-498.67 30.5,-498.67 30.5,-494.83 34.33,-491 38.17,-491 38.17,-491 318.83,-491 318.83,-491 322.67,-491 326.5,-494.83 326.5,-498.67 326.5,-498.67 326.5,-506.33 326.5,-506.33 326.5,-510.17 322.67,-514 318.83,-514"/>
<text text-anchor="middle" x="178.5" y="-498.8" font-family="Arial" font-size="14.00" fill="#cfffac">src/app/(sys&#45;auth)/sign&#45;up/credentials/page.tsx</text>
</g>
<!-- src/app/(sys&#45;auth)/sign&#45;up/layout.tsx -->
<g id="node10" class="node">
<title>src/app/(sys&#45;auth)/sign&#45;up/layout.tsx</title>
<path fill="none" stroke="#cfffac" d="M287.33,-555C287.33,-555 69.67,-555 69.67,-555 65.83,-555 62,-551.17 62,-547.33 62,-547.33 62,-539.67 62,-539.67 62,-535.83 65.83,-532 69.67,-532 69.67,-532 287.33,-532 287.33,-532 291.17,-532 295,-535.83 295,-539.67 295,-539.67 295,-547.33 295,-547.33 295,-551.17 291.17,-555 287.33,-555"/>
<text text-anchor="middle" x="178.5" y="-539.8" font-family="Arial" font-size="14.00" fill="#cfffac">src/app/(sys&#45;auth)/sign&#45;up/layout.tsx</text>
</g>
<!-- src/app/(sys&#45;auth)/sign&#45;up/page.tsx -->
<g id="node11" class="node">
<title>src/app/(sys&#45;auth)/sign&#45;up/page.tsx</title>
<path fill="none" stroke="#cfffac" d="M284.33,-596C284.33,-596 72.67,-596 72.67,-596 68.83,-596 65,-592.17 65,-588.33 65,-588.33 65,-580.67 65,-580.67 65,-576.83 68.83,-573 72.67,-573 72.67,-573 284.33,-573 284.33,-573 288.17,-573 292,-576.83 292,-580.67 292,-580.67 292,-588.33 292,-588.33 292,-592.17 288.17,-596 284.33,-596"/>
<text text-anchor="middle" x="178.5" y="-580.8" font-family="Arial" font-size="14.00" fill="#cfffac">src/app/(sys&#45;auth)/sign&#45;up/page.tsx</text>
</g>
<!-- src/app/api/health/route.ts -->
<g id="node12" class="node">
<title>src/app/api/health/route.ts</title>
<path fill="none" stroke="#cfffac" d="M256.83,-637C256.83,-637 100.17,-637 100.17,-637 96.33,-637 92.5,-633.17 92.5,-629.33 92.5,-629.33 92.5,-621.67 92.5,-621.67 92.5,-617.83 96.33,-614 100.17,-614 100.17,-614 256.83,-614 256.83,-614 260.67,-614 264.5,-617.83 264.5,-621.67 264.5,-621.67 264.5,-629.33 264.5,-629.33 264.5,-633.17 260.67,-637 256.83,-637"/>
<text text-anchor="middle" x="178.5" y="-621.8" font-family="Arial" font-size="14.00" fill="#cfffac">src/app/api/health/route.ts</text>
</g>
<!-- src/app/api/me/route.ts -->
<g id="node13" class="node">
<title>src/app/api/me/route.ts</title>
<path fill="none" stroke="#cfffac" d="M248.33,-678C248.33,-678 108.67,-678 108.67,-678 104.83,-678 101,-674.17 101,-670.33 101,-670.33 101,-662.67 101,-662.67 101,-658.83 104.83,-655 108.67,-655 108.67,-655 248.33,-655 248.33,-655 252.17,-655 256,-658.83 256,-662.67 256,-662.67 256,-670.33 256,-670.33 256,-674.17 252.17,-678 248.33,-678"/>
<text text-anchor="middle" x="178.5" y="-662.8" font-family="Arial" font-size="14.00" fill="#cfffac">src/app/api/me/route.ts</text>
</g>
<!-- src/app/api/register/route.ts -->
<g id="node14" class="node">
<title>src/app/api/register/route.ts</title>
<path fill="none" stroke="#cfffac" d="M260.83,-719C260.83,-719 96.17,-719 96.17,-719 92.33,-719 88.5,-715.17 88.5,-711.33 88.5,-711.33 88.5,-703.67 88.5,-703.67 88.5,-699.83 92.33,-696 96.17,-696 96.17,-696 260.83,-696 260.83,-696 264.67,-696 268.5,-699.83 268.5,-703.67 268.5,-703.67 268.5,-711.33 268.5,-711.33 268.5,-715.17 264.67,-719 260.83,-719"/>
<text text-anchor="middle" x="178.5" y="-703.8" font-family="Arial" font-size="14.00" fill="#cfffac">src/app/api/register/route.ts</text>
</g>
<!-- src/app/api/sessions/[id]/route.ts -->
<g id="node15" class="node">
<title>src/app/api/sessions/[id]/route.ts</title>
<path fill="none" stroke="#cfffac" d="M275.33,-760C275.33,-760 81.67,-760 81.67,-760 77.83,-760 74,-756.17 74,-752.33 74,-752.33 74,-744.67 74,-744.67 74,-740.83 77.83,-737 81.67,-737 81.67,-737 275.33,-737 275.33,-737 279.17,-737 283,-740.83 283,-744.67 283,-744.67 283,-752.33 283,-752.33 283,-756.17 279.17,-760 275.33,-760"/>
<text text-anchor="middle" x="178.5" y="-744.8" font-family="Arial" font-size="14.00" fill="#cfffac">src/app/api/sessions/[id]/route.ts</text>
</g>
<!-- src/app/api/sessions/active/route.ts -->
<g id="node16" class="node">
<title>src/app/api/sessions/active/route.ts</title>
<path fill="none" stroke="#cfffac" d="M284.33,-801C284.33,-801 72.67,-801 72.67,-801 68.83,-801 65,-797.17 65,-793.33 65,-793.33 65,-785.67 65,-785.67 65,-781.83 68.83,-778 72.67,-778 72.67,-778 284.33,-778 284.33,-778 288.17,-778 292,-781.83 292,-785.67 292,-785.67 292,-793.33 292,-793.33 292,-797.17 288.17,-801 284.33,-801"/>
<text text-anchor="middle" x="178.5" y="-785.8" font-family="Arial" font-size="14.00" fill="#cfffac">src/app/api/sessions/active/route.ts</text>
</g>
<!-- src/app/globals.css -->
<g id="node17" class="node">
<title>src/app/globals.css</title>
<path fill="none" stroke="#cfffac" d="M610.83,-842C610.83,-842 495.17,-842 495.17,-842 491.33,-842 487.5,-838.17 487.5,-834.33 487.5,-834.33 487.5,-826.67 487.5,-826.67 487.5,-822.83 491.33,-819 495.17,-819 495.17,-819 610.83,-819 610.83,-819 614.67,-819 618.5,-822.83 618.5,-826.67 618.5,-826.67 618.5,-834.33 618.5,-834.33 618.5,-838.17 614.67,-842 610.83,-842"/>
<text text-anchor="middle" x="553" y="-826.8" font-family="Arial" font-size="14.00" fill="#cfffac">src/app/globals.css</text>
</g>
<!-- src/app/layout.tsx -->
<g id="node18" class="node">
<title>src/app/layout.tsx</title>
<path fill="none" stroke="#c6c5fe" d="M231.83,-842C231.83,-842 125.17,-842 125.17,-842 121.33,-842 117.5,-838.17 117.5,-834.33 117.5,-834.33 117.5,-826.67 117.5,-826.67 117.5,-822.83 121.33,-819 125.17,-819 125.17,-819 231.83,-819 231.83,-819 235.67,-819 239.5,-822.83 239.5,-826.67 239.5,-826.67 239.5,-834.33 239.5,-834.33 239.5,-838.17 235.67,-842 231.83,-842"/>
<text text-anchor="middle" x="178.5" y="-826.8" font-family="Arial" font-size="14.00" fill="#c6c5fe">src/app/layout.tsx</text>
</g>
<!-- src/app/layout.tsx&#45;&gt;src/app/globals.css -->
<g id="edge2" class="edge">
<title>src/app/layout.tsx&#45;&gt;src/app/globals.css</title>
<path fill="none" stroke="#757575" d="M239.76,-830.5C304.53,-830.5 407.55,-830.5 477.39,-830.5"/>
<polygon fill="#757575" stroke="#757575" points="477.45,-834 487.45,-830.5 477.45,-827 477.45,-834"/>
</g>
<!-- src/app/not&#45;found.tsx -->
<g id="node19" class="node">
<title>src/app/not&#45;found.tsx</title>
<path fill="none" stroke="#cfffac" d="M242.33,-883C242.33,-883 114.67,-883 114.67,-883 110.83,-883 107,-879.17 107,-875.33 107,-875.33 107,-867.67 107,-867.67 107,-863.83 110.83,-860 114.67,-860 114.67,-860 242.33,-860 242.33,-860 246.17,-860 250,-863.83 250,-867.67 250,-867.67 250,-875.33 250,-875.33 250,-879.17 246.17,-883 242.33,-883"/>
<text text-anchor="middle" x="178.5" y="-867.8" font-family="Arial" font-size="14.00" fill="#cfffac">src/app/not&#45;found.tsx</text>
</g>
<!-- src/components/auth/github&#45;sign&#45;in.tsx -->
<g id="node20" class="node">
<title>src/components/auth/github&#45;sign&#45;in.tsx</title>
<path fill="none" stroke="#c6c5fe" d="M1017.83,-1004C1017.83,-1004 785.17,-1004 785.17,-1004 781.33,-1004 777.5,-1000.17 777.5,-996.33 777.5,-996.33 777.5,-988.67 777.5,-988.67 777.5,-984.83 781.33,-981 785.17,-981 785.17,-981 1017.83,-981 1017.83,-981 1021.67,-981 1025.5,-984.83 1025.5,-988.67 1025.5,-988.67 1025.5,-996.33 1025.5,-996.33 1025.5,-1000.17 1021.67,-1004 1017.83,-1004"/>
<text text-anchor="middle" x="901.5" y="-988.8" font-family="Arial" font-size="14.00" fill="#c6c5fe">src/components/auth/github&#45;sign&#45;in.tsx</text>
</g>
<!-- src/components/icons.tsx -->
<g id="node21" class="node">
<title>src/components/icons.tsx</title>
<path fill="none" stroke="#cfffac" d="M1565.33,-1025C1565.33,-1025 1411.67,-1025 1411.67,-1025 1407.83,-1025 1404,-1021.17 1404,-1017.33 1404,-1017.33 1404,-1009.67 1404,-1009.67 1404,-1005.83 1407.83,-1002 1411.67,-1002 1411.67,-1002 1565.33,-1002 1565.33,-1002 1569.17,-1002 1573,-1005.83 1573,-1009.67 1573,-1009.67 1573,-1017.33 1573,-1017.33 1573,-1021.17 1569.17,-1025 1565.33,-1025"/>
<text text-anchor="middle" x="1488.5" y="-1009.8" font-family="Arial" font-size="14.00" fill="#cfffac">src/components/icons.tsx</text>
</g>
<!-- src/components/auth/github&#45;sign&#45;in.tsx&#45;&gt;src/components/icons.tsx -->
<g id="edge3" class="edge">
<title>src/components/auth/github&#45;sign&#45;in.tsx&#45;&gt;src/components/icons.tsx</title>
<path fill="none" stroke="#757575" d="M1025.85,-996.93C1135.71,-1000.87 1294.09,-1006.56 1393.85,-1010.14"/>
<polygon fill="#757575" stroke="#757575" points="1393.8,-1013.64 1403.92,-1010.5 1394.05,-1006.64 1393.8,-1013.64"/>
</g>
<!-- src/components/ui/button.tsx -->
<g id="node22" class="node">
<title>src/components/ui/button.tsx</title>
<path fill="none" stroke="#c6c5fe" d="M1312.83,-1127C1312.83,-1127 1139.17,-1127 1139.17,-1127 1135.33,-1127 1131.5,-1123.17 1131.5,-1119.33 1131.5,-1119.33 1131.5,-1111.67 1131.5,-1111.67 1131.5,-1107.83 1135.33,-1104 1139.17,-1104 1139.17,-1104 1312.83,-1104 1312.83,-1104 1316.67,-1104 1320.5,-1107.83 1320.5,-1111.67 1320.5,-1111.67 1320.5,-1119.33 1320.5,-1119.33 1320.5,-1123.17 1316.67,-1127 1312.83,-1127"/>
<text text-anchor="middle" x="1226" y="-1111.8" font-family="Arial" font-size="14.00" fill="#c6c5fe">src/components/ui/button.tsx</text>
</g>
<!-- src/components/auth/github&#45;sign&#45;in.tsx&#45;&gt;src/components/ui/button.tsx -->
<g id="edge4" class="edge">
<title>src/components/auth/github&#45;sign&#45;in.tsx&#45;&gt;src/components/ui/button.tsx</title>
<path fill="none" stroke="#757575" d="M1024.28,-1004.06C1034.46,-1006.39 1044.48,-1009.17 1054,-1012.5 1111.71,-1032.7 1171.09,-1073.97 1202.43,-1097.68"/>
<polygon fill="#757575" stroke="#757575" points="1200.43,-1100.56 1210.5,-1103.87 1204.69,-1095.01 1200.43,-1100.56"/>
</g>
<!-- src/components/ui/use&#45;toast.ts -->
<g id="node23" class="node">
<title>src/components/ui/use&#45;toast.ts</title>
<path fill="none" stroke="#cfffac" d="M1318.33,-985C1318.33,-985 1133.67,-985 1133.67,-985 1129.83,-985 1126,-981.17 1126,-977.33 1126,-977.33 1126,-969.67 1126,-969.67 1126,-965.83 1129.83,-962 1133.67,-962 1133.67,-962 1318.33,-962 1318.33,-962 1322.17,-962 1326,-965.83 1326,-969.67 1326,-969.67 1326,-977.33 1326,-977.33 1326,-981.17 1322.17,-985 1318.33,-985"/>
<text text-anchor="middle" x="1226" y="-969.8" font-family="Arial" font-size="14.00" fill="#cfffac">src/components/ui/use&#45;toast.ts</text>
</g>
<!-- src/components/auth/github&#45;sign&#45;in.tsx&#45;&gt;src/components/ui/use&#45;toast.ts -->
<g id="edge5" class="edge">
<title>src/components/auth/github&#45;sign&#45;in.tsx&#45;&gt;src/components/ui/use&#45;toast.ts</title>
<path fill="none" stroke="#757575" d="M1025.8,-985.24C1055.39,-983.49 1086.78,-981.64 1115.68,-979.94"/>
<polygon fill="#757575" stroke="#757575" points="1116.02,-983.43 1125.8,-979.34 1115.61,-976.44 1116.02,-983.43"/>
</g>
<!-- src/components/ui/button.tsx&#45;&gt;src/components/icons.tsx -->
<g id="edge27" class="edge">
<title>src/components/ui/button.tsx&#45;&gt;src/components/icons.tsx</title>
<path fill="none" stroke="#757575" d="M1256.38,-1104C1303.48,-1085.56 1395.92,-1049.36 1448.5,-1028.77"/>
<polygon fill="#757575" stroke="#757575" points="1449.8,-1032.02 1457.83,-1025.12 1447.24,-1025.5 1449.8,-1032.02"/>
</g>
<!-- src/components/auth/login&#45;user&#45;auth&#45;form.tsx -->
<g id="node24" class="node">
<title>src/components/auth/login&#45;user&#45;auth&#45;form.tsx</title>
<path fill="none" stroke="#c6c5fe" d="M690.33,-1228C690.33,-1228 415.67,-1228 415.67,-1228 411.83,-1228 408,-1224.17 408,-1220.33 408,-1220.33 408,-1212.67 408,-1212.67 408,-1208.83 411.83,-1205 415.67,-1205 415.67,-1205 690.33,-1205 690.33,-1205 694.17,-1205 698,-1208.83 698,-1212.67 698,-1212.67 698,-1220.33 698,-1220.33 698,-1224.17 694.17,-1228 690.33,-1228"/>
<text text-anchor="middle" x="553" y="-1212.8" font-family="Arial" font-size="14.00" fill="#c6c5fe">src/components/auth/login&#45;user&#45;auth&#45;form.tsx</text>
</g>
<!-- src/components/auth/login&#45;user&#45;auth&#45;form.tsx&#45;&gt;src/components/ui/button.tsx -->
<g id="edge6" class="edge">
<title>src/components/auth/login&#45;user&#45;auth&#45;form.tsx&#45;&gt;src/components/ui/button.tsx</title>
<path fill="none" stroke="#757575" d="M601.85,-1204.95C641.19,-1195.76 698.47,-1183.06 749,-1174.5 784.75,-1168.45 992.16,-1143.32 1121.12,-1127.88"/>
<polygon fill="#757575" stroke="#757575" points="1121.91,-1131.31 1131.42,-1126.65 1121.07,-1124.36 1121.91,-1131.31"/>
</g>
<!-- src/components/ui/form&#45;field.tsx -->
<g id="node25" class="node">
<title>src/components/ui/form&#45;field.tsx</title>
<path fill="none" stroke="#cfffac" d="M998.33,-1207C998.33,-1207 804.67,-1207 804.67,-1207 800.83,-1207 797,-1203.17 797,-1199.33 797,-1199.33 797,-1191.67 797,-1191.67 797,-1187.83 800.83,-1184 804.67,-1184 804.67,-1184 998.33,-1184 998.33,-1184 1002.17,-1184 1006,-1187.83 1006,-1191.67 1006,-1191.67 1006,-1199.33 1006,-1199.33 1006,-1203.17 1002.17,-1207 998.33,-1207"/>
<text text-anchor="middle" x="901.5" y="-1191.8" font-family="Arial" font-size="14.00" fill="#cfffac">src/components/ui/form&#45;field.tsx</text>
</g>
<!-- src/components/auth/login&#45;user&#45;auth&#45;form.tsx&#45;&gt;src/components/ui/form&#45;field.tsx -->
<g id="edge7" class="edge">
<title>src/components/auth/login&#45;user&#45;auth&#45;form.tsx&#45;&gt;src/components/ui/form&#45;field.tsx</title>
<path fill="none" stroke="#757575" d="M698.19,-1207.76C727.65,-1205.98 758.26,-1204.12 786.48,-1202.41"/>
<polygon fill="#757575" stroke="#757575" points="787,-1205.89 796.77,-1201.79 786.58,-1198.9 787,-1205.89"/>
</g>
<!-- src/components/ui/form.tsx -->
<g id="node26" class="node">
<title>src/components/ui/form.tsx</title>
<path fill="none" stroke="#cfffac" d="M983.33,-1248C983.33,-1248 819.67,-1248 819.67,-1248 815.83,-1248 812,-1244.17 812,-1240.33 812,-1240.33 812,-1232.67 812,-1232.67 812,-1228.83 815.83,-1225 819.67,-1225 819.67,-1225 983.33,-1225 983.33,-1225 987.17,-1225 991,-1228.83 991,-1232.67 991,-1232.67 991,-1240.33 991,-1240.33 991,-1244.17 987.17,-1248 983.33,-1248"/>
<text text-anchor="middle" x="901.5" y="-1232.8" font-family="Arial" font-size="14.00" fill="#cfffac">src/components/ui/form.tsx</text>
</g>
<!-- src/components/auth/login&#45;user&#45;auth&#45;form.tsx&#45;&gt;src/components/ui/form.tsx -->
<g id="edge8" class="edge">
<title>src/components/auth/login&#45;user&#45;auth&#45;form.tsx&#45;&gt;src/components/ui/form.tsx</title>
<path fill="none" stroke="#757575" d="M698.19,-1224.82C732.98,-1226.83 769.38,-1228.93 801.56,-1230.79"/>
<polygon fill="#757575" stroke="#757575" points="801.67,-1234.3 811.85,-1231.38 802.07,-1227.31 801.67,-1234.3"/>
</g>
<!-- src/components/ui/label.tsx -->
<g id="node27" class="node">
<title>src/components/ui/label.tsx</title>
<path fill="none" stroke="#cfffac" d="M983.83,-1289C983.83,-1289 819.17,-1289 819.17,-1289 815.33,-1289 811.5,-1285.17 811.5,-1281.33 811.5,-1281.33 811.5,-1273.67 811.5,-1273.67 811.5,-1269.83 815.33,-1266 819.17,-1266 819.17,-1266 983.83,-1266 983.83,-1266 987.67,-1266 991.5,-1269.83 991.5,-1273.67 991.5,-1273.67 991.5,-1281.33 991.5,-1281.33 991.5,-1285.17 987.67,-1289 983.83,-1289"/>
<text text-anchor="middle" x="901.5" y="-1273.8" font-family="Arial" font-size="14.00" fill="#cfffac">src/components/ui/label.tsx</text>
</g>
<!-- src/components/auth/login&#45;user&#45;auth&#45;form.tsx&#45;&gt;src/components/ui/label.tsx -->
<g id="edge9" class="edge">
<title>src/components/auth/login&#45;user&#45;auth&#45;form.tsx&#45;&gt;src/components/ui/label.tsx</title>
<path fill="none" stroke="#757575" d="M621.96,-1228.02C650.23,-1233.15 683.31,-1239.59 713,-1246.5 729.17,-1250.27 732.74,-1253.13 749,-1256.5 765.74,-1259.97 783.63,-1263.02 801.05,-1265.65"/>
<polygon fill="#757575" stroke="#757575" points="800.84,-1269.15 811.24,-1267.14 801.85,-1262.23 800.84,-1269.15"/>
</g>
<!-- src/components/auth/provider.tsx -->
<g id="node28" class="node">
<title>src/components/auth/provider.tsx</title>
<path fill="none" stroke="#cfffac" d="M278.33,-1187C278.33,-1187 78.67,-1187 78.67,-1187 74.83,-1187 71,-1183.17 71,-1179.33 71,-1179.33 71,-1171.67 71,-1171.67 71,-1167.83 74.83,-1164 78.67,-1164 78.67,-1164 278.33,-1164 278.33,-1164 282.17,-1164 286,-1167.83 286,-1171.67 286,-1171.67 286,-1179.33 286,-1179.33 286,-1183.17 282.17,-1187 278.33,-1187"/>
<text text-anchor="middle" x="178.5" y="-1171.8" font-family="Arial" font-size="14.00" fill="#cfffac">src/components/auth/provider.tsx</text>
</g>
<!-- src/components/auth/register&#45;user&#45;auth&#45;form.tsx -->
<g id="node29" class="node">
<title>src/components/auth/register&#45;user&#45;auth&#45;form.tsx</title>
<path fill="none" stroke="#c6c5fe" d="M698.33,-1279C698.33,-1279 407.67,-1279 407.67,-1279 403.83,-1279 400,-1275.17 400,-1271.33 400,-1271.33 400,-1263.67 400,-1263.67 400,-1259.83 403.83,-1256 407.67,-1256 407.67,-1256 698.33,-1256 698.33,-1256 702.17,-1256 706,-1259.83 706,-1263.67 706,-1263.67 706,-1271.33 706,-1271.33 706,-1275.17 702.17,-1279 698.33,-1279"/>
<text text-anchor="middle" x="553" y="-1263.8" font-family="Arial" font-size="14.00" fill="#c6c5fe">src/components/auth/register&#45;user&#45;auth&#45;form.tsx</text>
</g>
<!-- src/components/auth/register&#45;user&#45;auth&#45;form.tsx&#45;&gt;src/components/ui/button.tsx -->
<g id="edge10" class="edge">
<title>src/components/auth/register&#45;user&#45;auth&#45;form.tsx&#45;&gt;src/components/ui/button.tsx</title>
<path fill="none" stroke="#757575" d="M575.86,-1279.05C648.29,-1315.63 885.34,-1421.71 1054,-1338.5 1141.45,-1295.35 1196.59,-1183.64 1216.56,-1136.73"/>
<polygon fill="#757575" stroke="#757575" points="1219.89,-1137.83 1220.49,-1127.26 1213.42,-1135.15 1219.89,-1137.83"/>
</g>
<!-- src/components/auth/register&#45;user&#45;auth&#45;form.tsx&#45;&gt;src/components/ui/form&#45;field.tsx -->
<g id="edge11" class="edge">
<title>src/components/auth/register&#45;user&#45;auth&#45;form.tsx&#45;&gt;src/components/ui/form&#45;field.tsx</title>
<path fill="none" stroke="#757575" d="M641.28,-1255.93C665,-1251.32 690.37,-1245.03 713,-1236.5 730.33,-1229.97 731.47,-1221.5 749,-1215.5 761.1,-1211.36 774.02,-1208.07 787.01,-1205.46"/>
<polygon fill="#757575" stroke="#757575" points="787.77,-1208.87 796.95,-1203.59 786.48,-1201.99 787.77,-1208.87"/>
</g>
<!-- src/components/auth/register&#45;user&#45;auth&#45;form.tsx&#45;&gt;src/components/ui/form.tsx -->
<g id="edge12" class="edge">
<title>src/components/auth/register&#45;user&#45;auth&#45;form.tsx&#45;&gt;src/components/ui/form.tsx</title>
<path fill="none" stroke="#757575" d="M683.02,-1255.96C722.24,-1252.45 764.71,-1248.65 801.61,-1245.35"/>
<polygon fill="#757575" stroke="#757575" points="802.22,-1248.81 811.87,-1244.43 801.59,-1241.83 802.22,-1248.81"/>
</g>
<!-- src/components/auth/register&#45;user&#45;auth&#45;form.tsx&#45;&gt;src/components/ui/label.tsx -->
<g id="edge13" class="edge">
<title>src/components/auth/register&#45;user&#45;auth&#45;form.tsx&#45;&gt;src/components/ui/label.tsx</title>
<path fill="none" stroke="#757575" d="M706.23,-1271.89C738.25,-1272.82 771.24,-1273.77 800.75,-1274.62"/>
<polygon fill="#757575" stroke="#757575" points="800.93,-1278.13 811.03,-1274.92 801.13,-1271.13 800.93,-1278.13"/>
</g>
<!-- src/components/auth/require&#45;auth.tsx -->
<g id="node30" class="node">
<title>src/components/auth/require&#45;auth.tsx</title>
<path fill="none" stroke="#cfffac" d="M290.83,-1228C290.83,-1228 66.17,-1228 66.17,-1228 62.33,-1228 58.5,-1224.17 58.5,-1220.33 58.5,-1220.33 58.5,-1212.67 58.5,-1212.67 58.5,-1208.83 62.33,-1205 66.17,-1205 66.17,-1205 290.83,-1205 290.83,-1205 294.67,-1205 298.5,-1208.83 298.5,-1212.67 298.5,-1212.67 298.5,-1220.33 298.5,-1220.33 298.5,-1224.17 294.67,-1228 290.83,-1228"/>
<text text-anchor="middle" x="178.5" y="-1212.8" font-family="Arial" font-size="14.00" fill="#cfffac">src/components/auth/require&#45;auth.tsx</text>
</g>
<!-- src/components/auth/sign&#45;out&#45;button.tsx -->
<g id="node31" class="node">
<title>src/components/auth/sign&#45;out&#45;button.tsx</title>
<path fill="none" stroke="#c6c5fe" d="M1022.33,-1127C1022.33,-1127 780.67,-1127 780.67,-1127 776.83,-1127 773,-1123.17 773,-1119.33 773,-1119.33 773,-1111.67 773,-1111.67 773,-1107.83 776.83,-1104 780.67,-1104 780.67,-1104 1022.33,-1104 1022.33,-1104 1026.17,-1104 1030,-1107.83 1030,-1111.67 1030,-1111.67 1030,-1119.33 1030,-1119.33 1030,-1123.17 1026.17,-1127 1022.33,-1127"/>
<text text-anchor="middle" x="901.5" y="-1111.8" font-family="Arial" font-size="14.00" fill="#c6c5fe">src/components/auth/sign&#45;out&#45;button.tsx</text>
</g>
<!-- src/components/auth/sign&#45;out&#45;button.tsx&#45;&gt;src/components/ui/button.tsx -->
<g id="edge14" class="edge">
<title>src/components/auth/sign&#45;out&#45;button.tsx&#45;&gt;src/components/ui/button.tsx</title>
<path fill="none" stroke="#757575" d="M1030.42,-1115.5C1060.47,-1115.5 1092.13,-1115.5 1120.98,-1115.5"/>
<polygon fill="#757575" stroke="#757575" points="1121.06,-1119 1131.06,-1115.5 1121.06,-1112 1121.06,-1119"/>
</g>
<!-- src/components/need&#45;save&#45;popup.tsx -->
<g id="node32" class="node">
<title>src/components/need&#45;save&#45;popup.tsx</title>
<path fill="none" stroke="#c6c5fe" d="M1014.83,-1086C1014.83,-1086 788.17,-1086 788.17,-1086 784.33,-1086 780.5,-1082.17 780.5,-1078.33 780.5,-1078.33 780.5,-1070.67 780.5,-1070.67 780.5,-1066.83 784.33,-1063 788.17,-1063 788.17,-1063 1014.83,-1063 1014.83,-1063 1018.67,-1063 1022.5,-1066.83 1022.5,-1070.67 1022.5,-1070.67 1022.5,-1078.33 1022.5,-1078.33 1022.5,-1082.17 1018.67,-1086 1014.83,-1086"/>
<text text-anchor="middle" x="901.5" y="-1070.8" font-family="Arial" font-size="14.00" fill="#c6c5fe">src/components/need&#45;save&#45;popup.tsx</text>
</g>
<!-- src/components/need&#45;save&#45;popup.tsx&#45;&gt;src/components/ui/button.tsx -->
<g id="edge15" class="edge">
<title>src/components/need&#45;save&#45;popup.tsx&#45;&gt;src/components/ui/button.tsx</title>
<path fill="none" stroke="#757575" d="M993.19,-1086.03C1034.07,-1091.23 1082.48,-1097.38 1124.46,-1102.72"/>
<polygon fill="#757575" stroke="#757575" points="1124.07,-1106.2 1134.43,-1103.99 1124.95,-1099.25 1124.07,-1106.2"/>
</g>
<!-- src/components/profile/get&#45;device&#45;icon.tsx -->
<g id="node33" class="node">
<title>src/components/profile/get&#45;device&#45;icon.tsx</title>
<path fill="none" stroke="#c6c5fe" d="M1352.83,-944C1352.83,-944 1099.17,-944 1099.17,-944 1095.33,-944 1091.5,-940.17 1091.5,-936.33 1091.5,-936.33 1091.5,-928.67 1091.5,-928.67 1091.5,-924.83 1095.33,-921 1099.17,-921 1099.17,-921 1352.83,-921 1352.83,-921 1356.67,-921 1360.5,-924.83 1360.5,-928.67 1360.5,-928.67 1360.5,-936.33 1360.5,-936.33 1360.5,-940.17 1356.67,-944 1352.83,-944"/>
<text text-anchor="middle" x="1226" y="-928.8" font-family="Arial" font-size="14.00" fill="#c6c5fe">src/components/profile/get&#45;device&#45;icon.tsx</text>
</g>
<!-- src/components/profile/get&#45;device&#45;icon.tsx&#45;&gt;src/components/icons.tsx -->
<g id="edge16" class="edge">
<title>src/components/profile/get&#45;device&#45;icon.tsx&#45;&gt;src/components/icons.tsx</title>
<path fill="none" stroke="#757575" d="M1328.02,-944C1339.6,-946.34 1351.13,-949.14 1362,-952.5 1397.1,-963.35 1434.64,-982.74 1459.43,-996.76"/>
<polygon fill="#757575" stroke="#757575" points="1457.86,-999.89 1468.27,-1001.84 1461.34,-993.82 1457.86,-999.89"/>
</g>
<!-- src/components/profile/profile&#45;details.tsx -->
<g id="node34" class="node">
<title>src/components/profile/profile&#45;details.tsx</title>
<path fill="none" stroke="#c6c5fe" d="M299.83,-1146C299.83,-1146 57.17,-1146 57.17,-1146 53.33,-1146 49.5,-1142.17 49.5,-1138.33 49.5,-1138.33 49.5,-1130.67 49.5,-1130.67 49.5,-1126.83 53.33,-1123 57.17,-1123 57.17,-1123 299.83,-1123 299.83,-1123 303.67,-1123 307.5,-1126.83 307.5,-1130.67 307.5,-1130.67 307.5,-1138.33 307.5,-1138.33 307.5,-1142.17 303.67,-1146 299.83,-1146"/>
<text text-anchor="middle" x="178.5" y="-1130.8" font-family="Arial" font-size="14.00" fill="#c6c5fe">src/components/profile/profile&#45;details.tsx</text>
</g>
<!-- src/components/profile/update&#45;account.tsx -->
<g id="node35" class="node">
<title>src/components/profile/update&#45;account.tsx</title>
<path fill="none" stroke="#c6c5fe" d="M680.83,-1146C680.83,-1146 425.17,-1146 425.17,-1146 421.33,-1146 417.5,-1142.17 417.5,-1138.33 417.5,-1138.33 417.5,-1130.67 417.5,-1130.67 417.5,-1126.83 421.33,-1123 425.17,-1123 425.17,-1123 680.83,-1123 680.83,-1123 684.67,-1123 688.5,-1126.83 688.5,-1130.67 688.5,-1130.67 688.5,-1138.33 688.5,-1138.33 688.5,-1142.17 684.67,-1146 680.83,-1146"/>
<text text-anchor="middle" x="553" y="-1130.8" font-family="Arial" font-size="14.00" fill="#c6c5fe">src/components/profile/update&#45;account.tsx</text>
</g>
<!-- src/components/profile/profile&#45;details.tsx&#45;&gt;src/components/profile/update&#45;account.tsx -->
<g id="edge17" class="edge">
<title>src/components/profile/profile&#45;details.tsx&#45;&gt;src/components/profile/update&#45;account.tsx</title>
<path fill="none" stroke="#757575" d="M307.69,-1134.5C339.73,-1134.5 374.32,-1134.5 407.11,-1134.5"/>
<polygon fill="#757575" stroke="#757575" points="407.22,-1138 417.22,-1134.5 407.22,-1131 407.22,-1138"/>
</g>
<!-- src/components/profile/update&#45;account.tsx&#45;&gt;src/components/ui/use&#45;toast.ts -->
<g id="edge24" class="edge">
<title>src/components/profile/update&#45;account.tsx&#45;&gt;src/components/ui/use&#45;toast.ts</title>
<path fill="none" stroke="#757575" d="M562.9,-1122.76C587.92,-1090.85 662.73,-1002.81 749,-971.5 813.82,-947.98 996.41,-955.97 1115.68,-964.39"/>
<polygon fill="#757575" stroke="#757575" points="1115.72,-967.9 1125.95,-965.13 1116.22,-960.92 1115.72,-967.9"/>
</g>
<!-- src/components/profile/update&#45;account.tsx&#45;&gt;src/components/ui/form&#45;field.tsx -->
<g id="edge22" class="edge">
<title>src/components/profile/update&#45;account.tsx&#45;&gt;src/components/ui/form&#45;field.tsx</title>
<path fill="none" stroke="#757575" d="M619.58,-1146.05C678.03,-1156.34 763.57,-1171.39 824.89,-1182.19"/>
<polygon fill="#757575" stroke="#757575" points="824.44,-1185.66 834.89,-1183.95 825.65,-1178.77 824.44,-1185.66"/>
</g>
<!-- src/components/profile/update&#45;account.tsx&#45;&gt;src/components/ui/form.tsx -->
<g id="edge23" class="edge">
<title>src/components/profile/update&#45;account.tsx&#45;&gt;src/components/ui/form.tsx</title>
<path fill="none" stroke="#757575" d="M588.07,-1146C620.67,-1157.37 670.94,-1175.87 713,-1195.5 729.59,-1203.24 731.64,-1209.7 749,-1215.5 765.79,-1221.11 784.1,-1225.22 802.02,-1228.23"/>
<polygon fill="#757575" stroke="#757575" points="801.49,-1231.69 811.91,-1229.8 802.58,-1224.78 801.49,-1231.69"/>
</g>
<!-- src/components/profile/update&#45;account.tsx&#45;&gt;src/components/need&#45;save&#45;popup.tsx -->
<g id="edge21" class="edge">
<title>src/components/profile/update&#45;account.tsx&#45;&gt;src/components/need&#45;save&#45;popup.tsx</title>
<path fill="none" stroke="#757575" d="M605.13,-1122.97C644.36,-1114.39 699.93,-1102.76 749,-1094.5 763.92,-1091.99 779.7,-1089.6 795.23,-1087.41"/>
<polygon fill="#757575" stroke="#757575" points="795.96,-1090.85 805.39,-1086 795,-1083.91 795.96,-1090.85"/>
</g>
<!-- src/components/profile/sessions/session&#45;row.tsx -->
<g id="node36" class="node">
<title>src/components/profile/sessions/session&#45;row.tsx</title>
<path fill="none" stroke="#c6c5fe" d="M1046.33,-924C1046.33,-924 756.67,-924 756.67,-924 752.83,-924 749,-920.17 749,-916.33 749,-916.33 749,-908.67 749,-908.67 749,-904.83 752.83,-901 756.67,-901 756.67,-901 1046.33,-901 1046.33,-901 1050.17,-901 1054,-904.83 1054,-908.67 1054,-908.67 1054,-916.33 1054,-916.33 1054,-920.17 1050.17,-924 1046.33,-924"/>
<text text-anchor="middle" x="901.5" y="-908.8" font-family="Arial" font-size="14.00" fill="#c6c5fe">src/components/profile/sessions/session&#45;row.tsx</text>
</g>
<!-- src/components/profile/sessions/session&#45;row.tsx&#45;&gt;src/components/profile/get&#45;device&#45;icon.tsx -->
<g id="edge18" class="edge">
<title>src/components/profile/sessions/session&#45;row.tsx&#45;&gt;src/components/profile/get&#45;device&#45;icon.tsx</title>
<path fill="none" stroke="#757575" d="M1054.31,-921.91C1063.33,-922.47 1072.39,-923.04 1081.38,-923.59"/>
<polygon fill="#757575" stroke="#757575" points="1081.29,-927.09 1091.48,-924.22 1081.72,-920.11 1081.29,-927.09"/>
</g>
<!-- src/components/profile/sessions/sessions&#45;table.tsx -->
<g id="node37" class="node">
<title>src/components/profile/sessions/sessions&#45;table.tsx</title>
<path fill="none" stroke="#c6c5fe" d="M705.33,-924C705.33,-924 400.67,-924 400.67,-924 396.83,-924 393,-920.17 393,-916.33 393,-916.33 393,-908.67 393,-908.67 393,-904.83 396.83,-901 400.67,-901 400.67,-901 705.33,-901 705.33,-901 709.17,-901 713,-904.83 713,-908.67 713,-908.67 713,-916.33 713,-916.33 713,-920.17 709.17,-924 705.33,-924"/>
<text text-anchor="middle" x="553" y="-908.8" font-family="Arial" font-size="14.00" fill="#c6c5fe">src/components/profile/sessions/sessions&#45;table.tsx</text>
</g>
<!-- src/components/profile/sessions/sessions&#45;table.tsx&#45;&gt;src/components/profile/sessions/session&#45;row.tsx -->
<g id="edge19" class="edge">
<title>src/components/profile/sessions/sessions&#45;table.tsx&#45;&gt;src/components/profile/sessions/session&#45;row.tsx</title>
<path fill="none" stroke="#757575" d="M713.05,-912.5C721.62,-912.5 730.23,-912.5 738.81,-912.5"/>
<polygon fill="#757575" stroke="#757575" points="738.85,-916 748.85,-912.5 738.85,-909 738.85,-916"/>
</g>
<!-- src/components/profile/sessions/user&#45;active&#45;sessions.tsx -->
<g id="node38" class="node">
<title>src/components/profile/sessions/user&#45;active&#45;sessions.tsx</title>
<path fill="none" stroke="#c6c5fe" d="M349.33,-924C349.33,-924 7.67,-924 7.67,-924 3.83,-924 0,-920.17 0,-916.33 0,-916.33 0,-908.67 0,-908.67 0,-904.83 3.83,-901 7.67,-901 7.67,-901 349.33,-901 349.33,-901 353.17,-901 357,-904.83 357,-908.67 357,-908.67 357,-916.33 357,-916.33 357,-920.17 353.17,-924 349.33,-924"/>
<text text-anchor="middle" x="178.5" y="-908.8" font-family="Arial" font-size="14.00" fill="#c6c5fe">src/components/profile/sessions/user&#45;active&#45;sessions.tsx</text>
</g>
<!-- src/components/profile/sessions/user&#45;active&#45;sessions.tsx&#45;&gt;src/components/profile/sessions/sessions&#45;table.tsx -->
<g id="edge20" class="edge">
<title>src/components/profile/sessions/user&#45;active&#45;sessions.tsx&#45;&gt;src/components/profile/sessions/sessions&#45;table.tsx</title>
<path fill="none" stroke="#757575" d="M357.02,-912.5C365.64,-912.5 374.29,-912.5 382.88,-912.5"/>
<polygon fill="#757575" stroke="#757575" points="382.95,-916 392.95,-912.5 382.95,-909 382.95,-916"/>
</g>
<!-- src/components/theme/theme&#45;provider.tsx -->
<g id="node39" class="node">
<title>src/components/theme/theme&#45;provider.tsx</title>
<path fill="none" stroke="#cfffac" d="M305.83,-1269C305.83,-1269 51.17,-1269 51.17,-1269 47.33,-1269 43.5,-1265.17 43.5,-1261.33 43.5,-1261.33 43.5,-1253.67 43.5,-1253.67 43.5,-1249.83 47.33,-1246 51.17,-1246 51.17,-1246 305.83,-1246 305.83,-1246 309.67,-1246 313.5,-1249.83 313.5,-1253.67 313.5,-1253.67 313.5,-1261.33 313.5,-1261.33 313.5,-1265.17 309.67,-1269 305.83,-1269"/>
<text text-anchor="middle" x="178.5" y="-1253.8" font-family="Arial" font-size="14.00" fill="#cfffac">src/components/theme/theme&#45;provider.tsx</text>
</g>
<!-- src/components/theme/theme&#45;switch.tsx -->
<g id="node40" class="node">
<title>src/components/theme/theme&#45;switch.tsx</title>
<path fill="none" stroke="#cfffac" d="M300.83,-1310C300.83,-1310 56.17,-1310 56.17,-1310 52.33,-1310 48.5,-1306.17 48.5,-1302.33 48.5,-1302.33 48.5,-1294.67 48.5,-1294.67 48.5,-1290.83 52.33,-1287 56.17,-1287 56.17,-1287 300.83,-1287 300.83,-1287 304.67,-1287 308.5,-1290.83 308.5,-1294.67 308.5,-1294.67 308.5,-1302.33 308.5,-1302.33 308.5,-1306.17 304.67,-1310 300.83,-1310"/>
<text text-anchor="middle" x="178.5" y="-1294.8" font-family="Arial" font-size="14.00" fill="#cfffac">src/components/theme/theme&#45;switch.tsx</text>
</g>
<!-- src/components/ui/accordion.tsx -->
<g id="node41" class="node">
<title>src/components/ui/accordion.tsx</title>
<path fill="none" stroke="#cfffac" d="M275.83,-1351C275.83,-1351 81.17,-1351 81.17,-1351 77.33,-1351 73.5,-1347.17 73.5,-1343.33 73.5,-1343.33 73.5,-1335.67 73.5,-1335.67 73.5,-1331.83 77.33,-1328 81.17,-1328 81.17,-1328 275.83,-1328 275.83,-1328 279.67,-1328 283.5,-1331.83 283.5,-1335.67 283.5,-1335.67 283.5,-1343.33 283.5,-1343.33 283.5,-1347.17 279.67,-1351 275.83,-1351"/>
<text text-anchor="middle" x="178.5" y="-1335.8" font-family="Arial" font-size="14.00" fill="#cfffac">src/components/ui/accordion.tsx</text>
</g>
<!-- src/components/ui/alert&#45;dialog.tsx -->
<g id="node42" class="node">
<title>src/components/ui/alert&#45;dialog.tsx</title>
<path fill="none" stroke="#cfffac" d="M279.83,-1392C279.83,-1392 77.17,-1392 77.17,-1392 73.33,-1392 69.5,-1388.17 69.5,-1384.33 69.5,-1384.33 69.5,-1376.67 69.5,-1376.67 69.5,-1372.83 73.33,-1369 77.17,-1369 77.17,-1369 279.83,-1369 279.83,-1369 283.67,-1369 287.5,-1372.83 287.5,-1376.67 287.5,-1376.67 287.5,-1384.33 287.5,-1384.33 287.5,-1388.17 283.67,-1392 279.83,-1392"/>
<text text-anchor="middle" x="178.5" y="-1376.8" font-family="Arial" font-size="14.00" fill="#cfffac">src/components/ui/alert&#45;dialog.tsx</text>
</g>
<!-- src/components/ui/button.stories.tsx -->
<g id="node43" class="node">
<title>src/components/ui/button.stories.tsx</title>
<path fill="none" stroke="#c6c5fe" d="M1010.33,-1045C1010.33,-1045 792.67,-1045 792.67,-1045 788.83,-1045 785,-1041.17 785,-1037.33 785,-1037.33 785,-1029.67 785,-1029.67 785,-1025.83 788.83,-1022 792.67,-1022 792.67,-1022 1010.33,-1022 1010.33,-1022 1014.17,-1022 1018,-1025.83 1018,-1029.67 1018,-1029.67 1018,-1037.33 1018,-1037.33 1018,-1041.17 1014.17,-1045 1010.33,-1045"/>
<text text-anchor="middle" x="901.5" y="-1029.8" font-family="Arial" font-size="14.00" fill="#c6c5fe">src/components/ui/button.stories.tsx</text>
</g>
<!-- src/components/ui/button.stories.tsx&#45;&gt;src/components/ui/button.tsx -->
<g id="edge25" class="edge">
<title>src/components/ui/button.stories.tsx&#45;&gt;src/components/ui/button.tsx</title>
<path fill="none" stroke="#757575" d="M1011.85,-1045.06C1026.12,-1047.41 1040.47,-1050.2 1054,-1053.5 1101.88,-1065.19 1154.95,-1085.68 1189.07,-1099.89"/>
<polygon fill="#757575" stroke="#757575" points="1188.03,-1103.24 1198.6,-1103.89 1190.74,-1096.79 1188.03,-1103.24"/>
</g>
<!-- src/components/ui/button.test.tsx -->
<g id="node44" class="node">
<title>src/components/ui/button.test.tsx</title>
<path fill="none" stroke="#c6c5fe" d="M1001.33,-1330C1001.33,-1330 801.67,-1330 801.67,-1330 797.83,-1330 794,-1326.17 794,-1322.33 794,-1322.33 794,-1314.67 794,-1314.67 794,-1310.83 797.83,-1307 801.67,-1307 801.67,-1307 1001.33,-1307 1001.33,-1307 1005.17,-1307 1009,-1310.83 1009,-1314.67 1009,-1314.67 1009,-1322.33 1009,-1322.33 1009,-1326.17 1005.17,-1330 1001.33,-1330"/>
<text text-anchor="middle" x="901.5" y="-1314.8" font-family="Arial" font-size="14.00" fill="#c6c5fe">src/components/ui/button.test.tsx</text>
</g>
<!-- src/components/ui/button.test.tsx&#45;&gt;src/components/ui/button.tsx -->
<g id="edge26" class="edge">
<title>src/components/ui/button.test.tsx&#45;&gt;src/components/ui/button.tsx</title>
<path fill="none" stroke="#757575" d="M1009.24,-1313.03C1024.8,-1309.6 1040.2,-1304.63 1054,-1297.5 1128.2,-1259.14 1187.57,-1175.43 1212.41,-1136.36"/>
<polygon fill="#757575" stroke="#757575" points="1215.65,-1137.78 1217.96,-1127.44 1209.7,-1134.08 1215.65,-1137.78"/>
</g>
<!-- src/components/ui/card.tsx -->
<g id="node45" class="node">
<title>src/components/ui/card.tsx</title>
<path fill="none" stroke="#cfffac" d="M259.83,-1433C259.83,-1433 97.17,-1433 97.17,-1433 93.33,-1433 89.5,-1429.17 89.5,-1425.33 89.5,-1425.33 89.5,-1417.67 89.5,-1417.67 89.5,-1413.83 93.33,-1410 97.17,-1410 97.17,-1410 259.83,-1410 259.83,-1410 263.67,-1410 267.5,-1413.83 267.5,-1417.67 267.5,-1417.67 267.5,-1425.33 267.5,-1425.33 267.5,-1429.17 263.67,-1433 259.83,-1433"/>
<text text-anchor="middle" x="178.5" y="-1417.8" font-family="Arial" font-size="14.00" fill="#cfffac">src/components/ui/card.tsx</text>
</g>
<!-- src/components/ui/collapsible.tsx -->
<g id="node46" class="node">
<title>src/components/ui/collapsible.tsx</title>
<path fill="none" stroke="#cfffac" d="M278.33,-1474C278.33,-1474 78.67,-1474 78.67,-1474 74.83,-1474 71,-1470.17 71,-1466.33 71,-1466.33 71,-1458.67 71,-1458.67 71,-1454.83 74.83,-1451 78.67,-1451 78.67,-1451 278.33,-1451 278.33,-1451 282.17,-1451 286,-1454.83 286,-1458.67 286,-1458.67 286,-1466.33 286,-1466.33 286,-1470.17 282.17,-1474 278.33,-1474"/>
<text text-anchor="middle" x="178.5" y="-1458.8" font-family="Arial" font-size="14.00" fill="#cfffac">src/components/ui/collapsible.tsx</text>
</g>
<!-- src/components/ui/dropdown&#45;menu.tsx -->
<g id="node47" class="node">
<title>src/components/ui/dropdown&#45;menu.tsx</title>
<path fill="none" stroke="#cfffac" d="M295.83,-1515C295.83,-1515 61.17,-1515 61.17,-1515 57.33,-1515 53.5,-1511.17 53.5,-1507.33 53.5,-1507.33 53.5,-1499.67 53.5,-1499.67 53.5,-1495.83 57.33,-1492 61.17,-1492 61.17,-1492 295.83,-1492 295.83,-1492 299.67,-1492 303.5,-1495.83 303.5,-1499.67 303.5,-1499.67 303.5,-1507.33 303.5,-1507.33 303.5,-1511.17 299.67,-1515 295.83,-1515"/>
<text text-anchor="middle" x="178.5" y="-1499.8" font-family="Arial" font-size="14.00" fill="#cfffac">src/components/ui/dropdown&#45;menu.tsx</text>
</g>
<!-- src/components/ui/input.tsx -->
<g id="node48" class="node">
<title>src/components/ui/input.tsx</title>
<path fill="none" stroke="#cfffac" d="M1571.33,-903C1571.33,-903 1405.67,-903 1405.67,-903 1401.83,-903 1398,-899.17 1398,-895.33 1398,-895.33 1398,-887.67 1398,-887.67 1398,-883.83 1401.83,-880 1405.67,-880 1405.67,-880 1571.33,-880 1571.33,-880 1575.17,-880 1579,-883.83 1579,-887.67 1579,-887.67 1579,-895.33 1579,-895.33 1579,-899.17 1575.17,-903 1571.33,-903"/>
<text text-anchor="middle" x="1488.5" y="-887.8" font-family="Arial" font-size="14.00" fill="#cfffac">src/components/ui/input.tsx</text>
</g>
<!-- src/components/ui/pagination.tsx -->
<g id="node49" class="node">
<title>src/components/ui/pagination.tsx</title>
<path fill="none" stroke="#c6c5fe" d="M1000.83,-1410C1000.83,-1410 802.17,-1410 802.17,-1410 798.33,-1410 794.5,-1406.17 794.5,-1402.33 794.5,-1402.33 794.5,-1394.67 794.5,-1394.67 794.5,-1390.83 798.33,-1387 802.17,-1387 802.17,-1387 1000.83,-1387 1000.83,-1387 1004.67,-1387 1008.5,-1390.83 1008.5,-1394.67 1008.5,-1394.67 1008.5,-1402.33 1008.5,-1402.33 1008.5,-1406.17 1004.67,-1410 1000.83,-1410"/>
<text text-anchor="middle" x="901.5" y="-1394.8" font-family="Arial" font-size="14.00" fill="#c6c5fe">src/components/ui/pagination.tsx</text>
</g>
<!-- src/components/ui/pagination.tsx&#45;&gt;src/components/icons.tsx -->
<g id="edge28" class="edge">
<title>src/components/ui/pagination.tsx&#45;&gt;src/components/icons.tsx</title>
<path fill="none" stroke="#757575" d="M941.44,-1410.02C1027.13,-1432.83 1234.53,-1473.71 1362,-1378.5 1475.19,-1293.95 1487.06,-1101.09 1487.73,-1035.67"/>
<polygon fill="#757575" stroke="#757575" points="1491.23,-1035.33 1487.75,-1025.32 1484.23,-1035.31 1491.23,-1035.33"/>
</g>
<!-- src/components/ui/pagination.tsx&#45;&gt;src/components/ui/button.tsx -->
<g id="edge29" class="edge">
<title>src/components/ui/pagination.tsx&#45;&gt;src/components/ui/button.tsx</title>
<path fill="none" stroke="#757575" d="M1008.54,-1391.68C1024.61,-1387.5 1040.36,-1381.38 1054,-1372.5 1100.72,-1342.1 1184.41,-1191.43 1214.15,-1136"/>
<polygon fill="#757575" stroke="#757575" points="1217.28,-1137.57 1218.9,-1127.1 1211.11,-1134.27 1217.28,-1137.57"/>
</g>
<!-- src/components/ui/select.tsx -->
<g id="node50" class="node">
<title>src/components/ui/select.tsx</title>
<path fill="none" stroke="#cfffac" d="M1311.83,-1370C1311.83,-1370 1140.17,-1370 1140.17,-1370 1136.33,-1370 1132.5,-1366.17 1132.5,-1362.33 1132.5,-1362.33 1132.5,-1354.67 1132.5,-1354.67 1132.5,-1350.83 1136.33,-1347 1140.17,-1347 1140.17,-1347 1311.83,-1347 1311.83,-1347 1315.67,-1347 1319.5,-1350.83 1319.5,-1354.67 1319.5,-1354.67 1319.5,-1362.33 1319.5,-1362.33 1319.5,-1366.17 1315.67,-1370 1311.83,-1370"/>
<text text-anchor="middle" x="1226" y="-1354.8" font-family="Arial" font-size="14.00" fill="#cfffac">src/components/ui/select.tsx</text>
</g>
<!-- src/components/ui/pagination.tsx&#45;&gt;src/components/ui/select.tsx -->
<g id="edge30" class="edge">
<title>src/components/ui/pagination.tsx&#45;&gt;src/components/ui/select.tsx</title>
<path fill="none" stroke="#757575" d="M995.35,-1386.98C1035.06,-1382.06 1081.56,-1376.29 1122.3,-1371.24"/>
<polygon fill="#757575" stroke="#757575" points="1122.76,-1374.71 1132.25,-1370 1121.89,-1367.76 1122.76,-1374.71"/>
</g>
<!-- src/components/ui/password&#45;eye&#45;slash.tsx -->
<g id="node51" class="node">
<title>src/components/ui/password&#45;eye&#45;slash.tsx</title>
<path fill="none" stroke="#c6c5fe" d="M1354.33,-903C1354.33,-903 1097.67,-903 1097.67,-903 1093.83,-903 1090,-899.17 1090,-895.33 1090,-895.33 1090,-887.67 1090,-887.67 1090,-883.83 1093.83,-880 1097.67,-880 1097.67,-880 1354.33,-880 1354.33,-880 1358.17,-880 1362,-883.83 1362,-887.67 1362,-887.67 1362,-895.33 1362,-895.33 1362,-899.17 1358.17,-903 1354.33,-903"/>
<text text-anchor="middle" x="1226" y="-887.8" font-family="Arial" font-size="14.00" fill="#c6c5fe">src/components/ui/password&#45;eye&#45;slash.tsx</text>
</g>
<!-- src/components/ui/password&#45;eye&#45;slash.tsx&#45;&gt;src/components/icons.tsx -->
<g id="edge31" class="edge">
<title>src/components/ui/password&#45;eye&#45;slash.tsx&#45;&gt;src/components/icons.tsx</title>
<path fill="none" stroke="#757575" d="M1338.15,-903.01C1346.37,-905.36 1354.41,-908.16 1362,-911.5 1406.56,-931.12 1448.33,-970.96 1470.65,-994.62"/>
<polygon fill="#757575" stroke="#757575" points="1468.09,-997.01 1477.45,-1001.98 1473.23,-992.26 1468.09,-997.01"/>
</g>
<!-- src/components/ui/password&#45;eye&#45;slash.tsx&#45;&gt;src/components/ui/input.tsx -->
<g id="edge32" class="edge">
<title>src/components/ui/password&#45;eye&#45;slash.tsx&#45;&gt;src/components/ui/input.tsx</title>
<path fill="none" stroke="#757575" d="M1362.21,-891.5C1370.75,-891.5 1379.27,-891.5 1387.61,-891.5"/>
<polygon fill="#757575" stroke="#757575" points="1387.68,-895 1397.68,-891.5 1387.68,-888 1387.68,-895"/>
</g>
<!-- src/components/ui/skeleton.tsx -->
<g id="node52" class="node">
<title>src/components/ui/skeleton.tsx</title>
<path fill="none" stroke="#cfffac" d="M271.83,-1556C271.83,-1556 85.17,-1556 85.17,-1556 81.33,-1556 77.5,-1552.17 77.5,-1548.33 77.5,-1548.33 77.5,-1540.67 77.5,-1540.67 77.5,-1536.83 81.33,-1533 85.17,-1533 85.17,-1533 271.83,-1533 271.83,-1533 275.67,-1533 279.5,-1536.83 279.5,-1540.67 279.5,-1540.67 279.5,-1548.33 279.5,-1548.33 279.5,-1552.17 275.67,-1556 271.83,-1556"/>
<text text-anchor="middle" x="178.5" y="-1540.8" font-family="Arial" font-size="14.00" fill="#cfffac">src/components/ui/skeleton.tsx</text>
</g>
<!-- src/components/ui/toast.tsx -->
<g id="node53" class="node">
<title>src/components/ui/toast.tsx</title>
<path fill="none" stroke="#cfffac" d="M261.33,-1597C261.33,-1597 95.67,-1597 95.67,-1597 91.83,-1597 88,-1593.17 88,-1589.33 88,-1589.33 88,-1581.67 88,-1581.67 88,-1577.83 91.83,-1574 95.67,-1574 95.67,-1574 261.33,-1574 261.33,-1574 265.17,-1574 269,-1577.83 269,-1581.67 269,-1581.67 269,-1589.33 269,-1589.33 269,-1593.17 265.17,-1597 261.33,-1597"/>
<text text-anchor="middle" x="178.5" y="-1581.8" font-family="Arial" font-size="14.00" fill="#cfffac">src/components/ui/toast.tsx</text>
</g>
<!-- src/components/ui/toaster.tsx -->
<g id="node54" class="node">
<title>src/components/ui/toaster.tsx</title>
<path fill="none" stroke="#cfffac" d="M266.83,-1638C266.83,-1638 90.17,-1638 90.17,-1638 86.33,-1638 82.5,-1634.17 82.5,-1630.33 82.5,-1630.33 82.5,-1622.67 82.5,-1622.67 82.5,-1618.83 86.33,-1615 90.17,-1615 90.17,-1615 266.83,-1615 266.83,-1615 270.67,-1615 274.5,-1618.83 274.5,-1622.67 274.5,-1622.67 274.5,-1630.33 274.5,-1630.33 274.5,-1634.17 270.67,-1638 266.83,-1638"/>
<text text-anchor="middle" x="178.5" y="-1622.8" font-family="Arial" font-size="14.00" fill="#cfffac">src/components/ui/toaster.tsx</text>
</g>
<!-- src/contexts/api.store.tsx -->
<g id="node55" class="node">
<title>src/contexts/api.store.tsx</title>
<path fill="none" stroke="#cfffac" d="M253.33,-1679C253.33,-1679 103.67,-1679 103.67,-1679 99.83,-1679 96,-1675.17 96,-1671.33 96,-1671.33 96,-1663.67 96,-1663.67 96,-1659.83 99.83,-1656 103.67,-1656 103.67,-1656 253.33,-1656 253.33,-1656 257.17,-1656 261,-1659.83 261,-1663.67 261,-1663.67 261,-1671.33 261,-1671.33 261,-1675.17 257.17,-1679 253.33,-1679"/>
<text text-anchor="middle" x="178.5" y="-1663.8" font-family="Arial" font-size="14.00" fill="#cfffac">src/contexts/api.store.tsx</text>
</g>
<!-- src/contexts/query&#45;provider.tsx -->
<g id="node56" class="node">
<title>src/contexts/query&#45;provider.tsx</title>
<path fill="none" stroke="#cfffac" d="M270.83,-1720C270.83,-1720 86.17,-1720 86.17,-1720 82.33,-1720 78.5,-1716.17 78.5,-1712.33 78.5,-1712.33 78.5,-1704.67 78.5,-1704.67 78.5,-1700.83 82.33,-1697 86.17,-1697 86.17,-1697 270.83,-1697 270.83,-1697 274.67,-1697 278.5,-1700.83 278.5,-1704.67 278.5,-1704.67 278.5,-1712.33 278.5,-1712.33 278.5,-1716.17 274.67,-1720 270.83,-1720"/>
<text text-anchor="middle" x="178.5" y="-1704.8" font-family="Arial" font-size="14.00" fill="#cfffac">src/contexts/query&#45;provider.tsx</text>
</g>
<!-- src/lib/auth/constants.ts -->
<g id="node57" class="node">
<title>src/lib/auth/constants.ts</title>
<path fill="none" stroke="#cfffac" d="M624.33,-146C624.33,-146 481.67,-146 481.67,-146 477.83,-146 474,-142.17 474,-138.33 474,-138.33 474,-130.67 474,-130.67 474,-126.83 477.83,-123 481.67,-123 481.67,-123 624.33,-123 624.33,-123 628.17,-123 632,-126.83 632,-130.67 632,-130.67 632,-138.33 632,-138.33 632,-142.17 628.17,-146 624.33,-146"/>
<text text-anchor="middle" x="553" y="-130.8" font-family="Arial" font-size="14.00" fill="#cfffac">src/lib/auth/constants.ts</text>
</g>
<!-- src/lib/auth/handle&#45;sign.ts -->
<g id="node58" class="node">
<title>src/lib/auth/handle&#45;sign.ts</title>
<path fill="none" stroke="#c6c5fe" d="M630.33,-64C630.33,-64 475.67,-64 475.67,-64 471.83,-64 468,-60.17 468,-56.33 468,-56.33 468,-48.67 468,-48.67 468,-44.83 471.83,-41 475.67,-41 475.67,-41 630.33,-41 630.33,-41 634.17,-41 638,-44.83 638,-48.67 638,-48.67 638,-56.33 638,-56.33 638,-60.17 634.17,-64 630.33,-64"/>
<text text-anchor="middle" x="553" y="-48.8" font-family="Arial" font-size="14.00" fill="#c6c5fe">src/lib/auth/handle&#45;sign.ts</text>
</g>
<!-- src/lib/logger.ts -->
<g id="node59" class="node">
<title>src/lib/logger.ts</title>
<path fill="none" stroke="#cfffac" d="M947.33,-85C947.33,-85 855.67,-85 855.67,-85 851.83,-85 848,-81.17 848,-77.33 848,-77.33 848,-69.67 848,-69.67 848,-65.83 851.83,-62 855.67,-62 855.67,-62 947.33,-62 947.33,-62 951.17,-62 955,-65.83 955,-69.67 955,-69.67 955,-77.33 955,-77.33 955,-81.17 951.17,-85 947.33,-85"/>
<text text-anchor="middle" x="901.5" y="-69.8" font-family="Arial" font-size="14.00" fill="#cfffac">src/lib/logger.ts</text>
</g>
<!-- src/lib/auth/handle&#45;sign.ts&#45;&gt;src/lib/logger.ts -->
<g id="edge33" class="edge">
<title>src/lib/auth/handle&#45;sign.ts&#45;&gt;src/lib/logger.ts</title>
<path fill="none" stroke="#757575" d="M638.32,-57.61C699.89,-61.34 782.03,-66.32 837.84,-69.7"/>
<polygon fill="#757575" stroke="#757575" points="837.76,-73.2 847.95,-70.32 838.18,-66.22 837.76,-73.2"/>
</g>
<!-- src/lib/auth/index.ts -->
<g id="node60" class="node">
<title>src/lib/auth/index.ts</title>
<path fill="none" stroke="#c6c5fe" d="M236.83,-227C236.83,-227 120.17,-227 120.17,-227 116.33,-227 112.5,-223.17 112.5,-219.33 112.5,-219.33 112.5,-211.67 112.5,-211.67 112.5,-207.83 116.33,-204 120.17,-204 120.17,-204 236.83,-204 236.83,-204 240.67,-204 244.5,-207.83 244.5,-211.67 244.5,-211.67 244.5,-219.33 244.5,-219.33 244.5,-223.17 240.67,-227 236.83,-227"/>
<text text-anchor="middle" x="178.5" y="-211.8" font-family="Arial" font-size="14.00" fill="#c6c5fe">src/lib/auth/index.ts</text>
</g>
<!-- src/lib/auth/index.ts&#45;&gt;env.mjs -->
<g id="edge34" class="edge">
<title>src/lib/auth/index.ts&#45;&gt;env.mjs</title>
<path fill="none" stroke="#757575" d="M244.89,-220.1C287.14,-222.99 343.3,-226.7 393,-229.5 566.52,-239.29 773.57,-248.23 859.74,-251.82"/>
<polygon fill="#757575" stroke="#757575" points="859.75,-255.33 869.88,-252.25 860.04,-248.33 859.75,-255.33"/>
</g>
<!-- src/lib/auth/index.ts&#45;&gt;src/lib/auth/constants.ts -->
<g id="edge35" class="edge">
<title>src/lib/auth/index.ts&#45;&gt;src/lib/auth/constants.ts</title>
<path fill="none" stroke="#757575" d="M213.86,-203.92C255.71,-190.22 328.8,-167.63 393,-154.5 415.79,-149.84 440.66,-146.09 463.82,-143.15"/>
<polygon fill="#757575" stroke="#757575" points="464.48,-146.6 473.97,-141.9 463.62,-139.65 464.48,-146.6"/>
</g>
<!-- src/lib/auth/index.ts&#45;&gt;src/lib/logger.ts -->
<g id="edge37" class="edge">
<title>src/lib/auth/index.ts&#45;&gt;src/lib/logger.ts</title>
<path fill="none" stroke="#757575" d="M244.56,-217.36C367.14,-220.17 627.63,-222.58 713,-195.5 780.96,-173.94 847.88,-120.56 880.3,-92.08"/>
<polygon fill="#757575" stroke="#757575" points="883.01,-94.36 888.14,-85.09 878.35,-89.14 883.01,-94.36"/>
</g>
<!-- src/lib/bcrypt.ts -->
<g id="node61" class="node">
<title>src/lib/bcrypt.ts</title>
<path fill="none" stroke="#c6c5fe" d="M598.83,-305C598.83,-305 507.17,-305 507.17,-305 503.33,-305 499.5,-301.17 499.5,-297.33 499.5,-297.33 499.5,-289.67 499.5,-289.67 499.5,-285.83 503.33,-282 507.17,-282 507.17,-282 598.83,-282 598.83,-282 602.67,-282 606.5,-285.83 606.5,-289.67 606.5,-289.67 606.5,-297.33 606.5,-297.33 606.5,-301.17 602.67,-305 598.83,-305"/>
<text text-anchor="middle" x="553" y="-289.8" font-family="Arial" font-size="14.00" fill="#c6c5fe">src/lib/bcrypt.ts</text>
</g>
<!-- src/lib/auth/index.ts&#45;&gt;src/lib/bcrypt.ts -->
<g id="edge36" class="edge">
<title>src/lib/auth/index.ts&#45;&gt;src/lib/bcrypt.ts</title>
<path fill="none" stroke="#757575" d="M244.82,-213.49C279.48,-214.7 322.02,-219.9 357,-235.5 376.55,-244.22 373.67,-258.3 393,-267.5 422.84,-281.71 459,-288.34 489.29,-291.36"/>
<polygon fill="#757575" stroke="#757575" points="489.05,-294.85 499.32,-292.25 489.67,-287.88 489.05,-294.85"/>
</g>
<!-- src/lib/prisma.ts -->
<g id="node62" class="node">
<title>src/lib/prisma.ts</title>
<path fill="none" stroke="#cfffac" d="M600.83,-187C600.83,-187 505.17,-187 505.17,-187 501.33,-187 497.5,-183.17 497.5,-179.33 497.5,-179.33 497.5,-171.67 497.5,-171.67 497.5,-167.83 501.33,-164 505.17,-164 505.17,-164 600.83,-164 600.83,-164 604.67,-164 608.5,-167.83 608.5,-171.67 608.5,-171.67 608.5,-179.33 608.5,-179.33 608.5,-183.17 604.67,-187 600.83,-187"/>
<text text-anchor="middle" x="553" y="-171.8" font-family="Arial" font-size="14.00" fill="#cfffac">src/lib/prisma.ts</text>
</g>
<!-- src/lib/auth/index.ts&#45;&gt;src/lib/prisma.ts -->
<g id="edge38" class="edge">
<title>src/lib/auth/index.ts&#45;&gt;src/lib/prisma.ts</title>
<path fill="none" stroke="#757575" d="M244.81,-208.49C312.98,-201.17 419.24,-189.76 487.22,-182.46"/>
<polygon fill="#757575" stroke="#757575" points="487.81,-185.91 497.37,-181.37 487.06,-178.95 487.81,-185.91"/>
</g>
<!-- src/lib/bcrypt.ts&#45;&gt;env.mjs -->
<g id="edge39" class="edge">
<title>src/lib/bcrypt.ts&#45;&gt;env.mjs</title>
<path fill="none" stroke="#757575" d="M606.63,-287.42C676.03,-279.41 796.7,-265.48 859.65,-258.22"/>
<polygon fill="#757575" stroke="#757575" points="860.07,-261.69 869.61,-257.07 859.27,-254.74 860.07,-261.69"/>
</g>
<!-- src/lib/json&#45;api.ts -->
<g id="node63" class="node">
<title>src/lib/json&#45;api.ts</title>
<path fill="none" stroke="#cfffac" d="M229.33,-1761C229.33,-1761 127.67,-1761 127.67,-1761 123.83,-1761 120,-1757.17 120,-1753.33 120,-1753.33 120,-1745.67 120,-1745.67 120,-1741.83 123.83,-1738 127.67,-1738 127.67,-1738 229.33,-1738 229.33,-1738 233.17,-1738 237,-1741.83 237,-1745.67 237,-1745.67 237,-1753.33 237,-1753.33 237,-1757.17 233.17,-1761 229.33,-1761"/>
<text text-anchor="middle" x="178.5" y="-1745.8" font-family="Arial" font-size="14.00" fill="#cfffac">src/lib/json&#45;api.ts</text>
</g>
<!-- src/lib/rate&#45;limit.ts -->
<g id="node64" class="node">
<title>src/lib/rate&#45;limit.ts</title>
<path fill="none" stroke="#c6c5fe" d="M231.83,-105C231.83,-105 125.17,-105 125.17,-105 121.33,-105 117.5,-101.17 117.5,-97.33 117.5,-97.33 117.5,-89.67 117.5,-89.67 117.5,-85.83 121.33,-82 125.17,-82 125.17,-82 231.83,-82 231.83,-82 235.67,-82 239.5,-85.83 239.5,-89.67 239.5,-89.67 239.5,-97.33 239.5,-97.33 239.5,-101.17 235.67,-105 231.83,-105"/>
<text text-anchor="middle" x="178.5" y="-89.8" font-family="Arial" font-size="14.00" fill="#c6c5fe">src/lib/rate&#45;limit.ts</text>
</g>
<!-- src/lib/redis.ts -->
<g id="node65" class="node">
<title>src/lib/redis.ts</title>
<path fill="none" stroke="#c6c5fe" d="M594.83,-105C594.83,-105 511.17,-105 511.17,-105 507.33,-105 503.5,-101.17 503.5,-97.33 503.5,-97.33 503.5,-89.67 503.5,-89.67 503.5,-85.83 507.33,-82 511.17,-82 511.17,-82 594.83,-82 594.83,-82 598.67,-82 602.5,-85.83 602.5,-89.67 602.5,-89.67 602.5,-97.33 602.5,-97.33 602.5,-101.17 598.67,-105 594.83,-105"/>
<text text-anchor="middle" x="553" y="-89.8" font-family="Arial" font-size="14.00" fill="#c6c5fe">src/lib/redis.ts</text>
</g>
<!-- src/lib/rate&#45;limit.ts&#45;&gt;src/lib/redis.ts -->
<g id="edge40" class="edge">
<title>src/lib/rate&#45;limit.ts&#45;&gt;src/lib/redis.ts</title>
<path fill="none" stroke="#757575" d="M239.76,-93.5C309.58,-93.5 423.88,-93.5 493.11,-93.5"/>
<polygon fill="#757575" stroke="#757575" points="493.4,-97 503.4,-93.5 493.4,-90 493.4,-97"/>
</g>
<!-- src/lib/redis.ts&#45;&gt;env.mjs -->
<g id="edge41" class="edge">
<title>src/lib/redis.ts&#45;&gt;env.mjs</title>
<path fill="none" stroke="#757575" d="M602.57,-93.22C634.91,-94.56 677.78,-99.3 713,-113.5 783.51,-141.93 851.13,-203.61 882.4,-234.73"/>
<polygon fill="#757575" stroke="#757575" points="880.03,-237.31 889.55,-241.95 885,-232.38 880.03,-237.31"/>
</g>
<!-- src/lib/redis.ts&#45;&gt;src/lib/logger.ts -->
<g id="edge42" class="edge">
<title>src/lib/redis.ts&#45;&gt;src/lib/logger.ts</title>
<path fill="none" stroke="#757575" d="M602.54,-90.7C664.02,-87.15 770.05,-81.03 837.65,-77.13"/>
<polygon fill="#757575" stroke="#757575" points="837.97,-80.62 847.75,-76.54 837.56,-73.63 837.97,-80.62"/>
</g>
<!-- src/lib/utils.ts -->
<g id="node66" class="node">
<title>src/lib/utils.ts</title>
<path fill="none" stroke="#c6c5fe" d="M592.33,-23C592.33,-23 513.67,-23 513.67,-23 509.83,-23 506,-19.17 506,-15.33 506,-15.33 506,-7.67 506,-7.67 506,-3.83 509.83,0 513.67,0 513.67,0 592.33,0 592.33,0 596.17,0 600,-3.83 600,-7.67 600,-7.67 600,-15.33 600,-15.33 600,-19.17 596.17,-23 592.33,-23"/>
<text text-anchor="middle" x="553" y="-7.8" font-family="Arial" font-size="14.00" fill="#c6c5fe">src/lib/utils.ts</text>
</g>
<!-- src/lib/utils.ts&#45;&gt;src/lib/logger.ts -->
<g id="edge43" class="edge">
<title>src/lib/utils.ts&#45;&gt;src/lib/logger.ts</title>
<path fill="none" stroke="#757575" d="M600.09,-16.12C631.93,-19.6 675.18,-24.9 713,-31.5 757.46,-39.26 807.29,-50.54 844.4,-59.46"/>
<polygon fill="#757575" stroke="#757575" points="843.97,-62.96 854.51,-61.91 845.62,-56.16 843.97,-62.96"/>
</g>
<!-- src/types/api.ts -->
<g id="node67" class="node">
<title>src/types/api.ts</title>
<path fill="none" stroke="#c6c5fe" d="M224.33,-1843C224.33,-1843 132.67,-1843 132.67,-1843 128.83,-1843 125,-1839.17 125,-1835.33 125,-1835.33 125,-1827.67 125,-1827.67 125,-1823.83 128.83,-1820 132.67,-1820 132.67,-1820 224.33,-1820 224.33,-1820 228.17,-1820 232,-1823.83 232,-1827.67 232,-1827.67 232,-1835.33 232,-1835.33 232,-1839.17 228.17,-1843 224.33,-1843"/>
<text text-anchor="middle" x="178.5" y="-1827.8" font-family="Arial" font-size="14.00" fill="#c6c5fe">src/types/api.ts</text>
</g>
<!-- src/types/constants.ts -->
<g id="node68" class="node">
<title>src/types/constants.ts</title>
<path fill="none" stroke="#cfffac" d="M618.33,-1822C618.33,-1822 487.67,-1822 487.67,-1822 483.83,-1822 480,-1818.17 480,-1814.33 480,-1814.33 480,-1806.67 480,-1806.67 480,-1802.83 483.83,-1799 487.67,-1799 487.67,-1799 618.33,-1799 618.33,-1799 622.17,-1799 626,-1802.83 626,-1806.67 626,-1806.67 626,-1814.33 626,-1814.33 626,-1818.17 622.17,-1822 618.33,-1822"/>
<text text-anchor="middle" x="553" y="-1806.8" font-family="Arial" font-size="14.00" fill="#cfffac">src/types/constants.ts</text>
</g>
<!-- src/types/api.ts&#45;&gt;src/types/constants.ts -->
<g id="edge44" class="edge">
<title>src/types/api.ts&#45;&gt;src/types/constants.ts</title>
<path fill="none" stroke="#757575" d="M232.08,-1828.54C293.95,-1825.05 397.4,-1819.22 469.87,-1815.13"/>
<polygon fill="#757575" stroke="#757575" points="470.1,-1818.62 479.88,-1814.57 469.7,-1811.63 470.1,-1818.62"/>
</g>
<!-- src/types/auth.ts -->
<g id="node69" class="node">
<title>src/types/auth.ts</title>
<path fill="none" stroke="#c6c5fe" d="M228.33,-1802C228.33,-1802 128.67,-1802 128.67,-1802 124.83,-1802 121,-1798.17 121,-1794.33 121,-1794.33 121,-1786.67 121,-1786.67 121,-1782.83 124.83,-1779 128.67,-1779 128.67,-1779 228.33,-1779 228.33,-1779 232.17,-1779 236,-1782.83 236,-1786.67 236,-1786.67 236,-1794.33 236,-1794.33 236,-1798.17 232.17,-1802 228.33,-1802"/>
<text text-anchor="middle" x="178.5" y="-1786.8" font-family="Arial" font-size="14.00" fill="#c6c5fe">src/types/auth.ts</text>
</g>
<!-- src/types/auth.ts&#45;&gt;src/types/constants.ts -->
<g id="edge45" class="edge">
<title>src/types/auth.ts&#45;&gt;src/types/constants.ts</title>
<path fill="none" stroke="#757575" d="M236.07,-1793.54C298.25,-1796.88 398.69,-1802.27 469.61,-1806.08"/>
<polygon fill="#757575" stroke="#757575" points="469.68,-1809.58 479.85,-1806.63 470.05,-1802.59 469.68,-1809.58"/>
</g>
<!-- src/types/index.ts -->
<g id="node70" class="node">
<title>src/types/index.ts</title>
<path fill="none" stroke="#cfffac" d="M231.33,-1884C231.33,-1884 125.67,-1884 125.67,-1884 121.83,-1884 118,-1880.17 118,-1876.33 118,-1876.33 118,-1868.67 118,-1868.67 118,-1864.83 121.83,-1861 125.67,-1861 125.67,-1861 231.33,-1861 231.33,-1861 235.17,-1861 239,-1864.83 239,-1868.67 239,-1868.67 239,-1876.33 239,-1876.33 239,-1880.17 235.17,-1884 231.33,-1884"/>
<text text-anchor="middle" x="178.5" y="-1868.8" font-family="Arial" font-size="14.00" fill="#cfffac">src/types/index.ts</text>
</g>
<!-- types.d.ts -->
<g id="node71" class="node">
<title>types.d.ts</title>
<path fill="none" stroke="#cfffac" d="M207.83,-1925C207.83,-1925 149.17,-1925 149.17,-1925 145.33,-1925 141.5,-1921.17 141.5,-1917.33 141.5,-1917.33 141.5,-1909.67 141.5,-1909.67 141.5,-1905.83 145.33,-1902 149.17,-1902 149.17,-1902 207.83,-1902 207.83,-1902 211.67,-1902 215.5,-1905.83 215.5,-1909.67 215.5,-1909.67 215.5,-1917.33 215.5,-1917.33 215.5,-1921.17 211.67,-1925 207.83,-1925"/>
<text text-anchor="middle" x="178.5" y="-1909.8" font-family="Arial" font-size="14.00" fill="#cfffac">types.d.ts</text>
</g>
</g>
</svg>
